<mxfile host="app.diagrams.net" agent="Mozilla/5.0 (Windows NT 10.0; Win64; x64) AppleWebKit/537.36 (KHTML, like Gecko) Chrome/128.0.0.0 Safari/537.36" version="24.7.8">
  <diagram name="PÃ¡gina-1" id="6Dnerk-Hs60YYQF5r1ky">
    <mxGraphModel dx="1290" dy="565" grid="1" gridSize="10" guides="1" tooltips="1" connect="1" arrows="1" fold="1" page="1" pageScale="1" pageWidth="1200" pageHeight="1920" math="0" shadow="0">
      <root>
        <mxCell id="0" />
        <mxCell id="1" parent="0" />
        <mxCell id="7i5eUHMRPuskoXz9qCgi-1" value="&lt;font style=&quot;font-size: 18px;&quot;&gt;&lt;b&gt;Diagrama De Uso&lt;/b&gt;&lt;/font&gt;" style="text;html=1;align=center;verticalAlign=middle;whiteSpace=wrap;rounded=0;" parent="1" vertex="1">
          <mxGeometry x="500" y="120" width="220" height="70" as="geometry" />
        </mxCell>
        <mxCell id="dndkz-WKVprGhuRRWFzV-1" value="Realizar Reserva" style="ellipse;whiteSpace=wrap;html=1;" parent="1" vertex="1">
          <mxGeometry x="420" y="240" width="380" height="80" as="geometry" />
        </mxCell>
        <mxCell id="dndkz-WKVprGhuRRWFzV-2" value="Solicitar Orden" style="ellipse;whiteSpace=wrap;html=1;" parent="1" vertex="1">
          <mxGeometry x="420" y="640" width="380" height="80" as="geometry" />
        </mxCell>
        <mxCell id="dndkz-WKVprGhuRRWFzV-3" value="Asignar Mesas" style="ellipse;whiteSpace=wrap;html=1;" parent="1" vertex="1">
          <mxGeometry x="420" y="510" width="380" height="80" as="geometry" />
        </mxCell>
        <mxCell id="dndkz-WKVprGhuRRWFzV-4" value="Cancelar Reserva" style="ellipse;whiteSpace=wrap;html=1;" parent="1" vertex="1">
          <mxGeometry x="420" y="380" width="380" height="80" as="geometry" />
        </mxCell>
        <mxCell id="dndkz-WKVprGhuRRWFzV-5" value="Cerrar Orden" style="ellipse;whiteSpace=wrap;html=1;" parent="1" vertex="1">
          <mxGeometry x="420" y="770" width="380" height="80" as="geometry" />
        </mxCell>
        <mxCell id="dndkz-WKVprGhuRRWFzV-6" value="Verificar Disponibilidad de las Mesas" style="ellipse;whiteSpace=wrap;html=1;" parent="1" vertex="1">
          <mxGeometry x="420" y="900" width="380" height="80" as="geometry" />
        </mxCell>
        <mxCell id="dndkz-WKVprGhuRRWFzV-8" style="edgeStyle=orthogonalEdgeStyle;rounded=0;orthogonalLoop=1;jettySize=auto;html=1;entryX=0;entryY=0.5;entryDx=0;entryDy=0;" parent="1" source="dndkz-WKVprGhuRRWFzV-7" target="dndkz-WKVprGhuRRWFzV-1" edge="1">
          <mxGeometry relative="1" as="geometry" />
        </mxCell>
        <mxCell id="dndkz-WKVprGhuRRWFzV-9" style="edgeStyle=orthogonalEdgeStyle;rounded=0;orthogonalLoop=1;jettySize=auto;html=1;entryX=0;entryY=0.5;entryDx=0;entryDy=0;" parent="1" source="dndkz-WKVprGhuRRWFzV-7" target="dndkz-WKVprGhuRRWFzV-4" edge="1">
          <mxGeometry relative="1" as="geometry" />
        </mxCell>
        <mxCell id="dndkz-WKVprGhuRRWFzV-10" style="edgeStyle=orthogonalEdgeStyle;rounded=0;orthogonalLoop=1;jettySize=auto;html=1;entryX=0;entryY=0.5;entryDx=0;entryDy=0;" parent="1" source="dndkz-WKVprGhuRRWFzV-7" target="dndkz-WKVprGhuRRWFzV-2" edge="1">
          <mxGeometry relative="1" as="geometry" />
        </mxCell>
        <mxCell id="dndkz-WKVprGhuRRWFzV-7" value="Cliente&lt;div&gt;&lt;br&gt;&lt;/div&gt;" style="shape=umlActor;verticalLabelPosition=bottom;verticalAlign=top;html=1;outlineConnect=0;" parent="1" vertex="1">
          <mxGeometry x="180" y="390" width="30" height="60" as="geometry" />
        </mxCell>
        <mxCell id="OVBNsnJ0_WuL0kxNpx8--12" style="edgeStyle=orthogonalEdgeStyle;rounded=0;orthogonalLoop=1;jettySize=auto;html=1;entryX=0;entryY=0.5;entryDx=0;entryDy=0;" edge="1" parent="1" source="dndkz-WKVprGhuRRWFzV-11" target="dndkz-WKVprGhuRRWFzV-6">
          <mxGeometry relative="1" as="geometry" />
        </mxCell>
        <mxCell id="OVBNsnJ0_WuL0kxNpx8--13" style="edgeStyle=orthogonalEdgeStyle;rounded=0;orthogonalLoop=1;jettySize=auto;html=1;entryX=0;entryY=0.5;entryDx=0;entryDy=0;" edge="1" parent="1" source="dndkz-WKVprGhuRRWFzV-11" target="dndkz-WKVprGhuRRWFzV-5">
          <mxGeometry relative="1" as="geometry" />
        </mxCell>
        <mxCell id="dndkz-WKVprGhuRRWFzV-11" value="Mesero&lt;div&gt;&lt;br&gt;&lt;/div&gt;" style="shape=umlActor;verticalLabelPosition=bottom;verticalAlign=top;html=1;outlineConnect=0;" parent="1" vertex="1">
          <mxGeometry x="180" y="850" width="30" height="60" as="geometry" />
        </mxCell>
        <mxCell id="OVBNsnJ0_WuL0kxNpx8--2" style="edgeStyle=orthogonalEdgeStyle;rounded=0;orthogonalLoop=1;jettySize=auto;html=1;entryX=1;entryY=0.5;entryDx=0;entryDy=0;" edge="1" parent="1" source="dndkz-WKVprGhuRRWFzV-17" target="dndkz-WKVprGhuRRWFzV-1">
          <mxGeometry relative="1" as="geometry" />
        </mxCell>
        <mxCell id="OVBNsnJ0_WuL0kxNpx8--3" style="edgeStyle=orthogonalEdgeStyle;rounded=0;orthogonalLoop=1;jettySize=auto;html=1;entryX=1;entryY=0.5;entryDx=0;entryDy=0;" edge="1" parent="1" source="dndkz-WKVprGhuRRWFzV-17" target="dndkz-WKVprGhuRRWFzV-4">
          <mxGeometry relative="1" as="geometry" />
        </mxCell>
        <mxCell id="OVBNsnJ0_WuL0kxNpx8--4" style="edgeStyle=orthogonalEdgeStyle;rounded=0;orthogonalLoop=1;jettySize=auto;html=1;entryX=1;entryY=0.5;entryDx=0;entryDy=0;" edge="1" parent="1" source="dndkz-WKVprGhuRRWFzV-17" target="dndkz-WKVprGhuRRWFzV-3">
          <mxGeometry relative="1" as="geometry" />
        </mxCell>
        <mxCell id="OVBNsnJ0_WuL0kxNpx8--7" style="edgeStyle=orthogonalEdgeStyle;rounded=0;orthogonalLoop=1;jettySize=auto;html=1;entryX=1;entryY=0.5;entryDx=0;entryDy=0;" edge="1" parent="1" source="dndkz-WKVprGhuRRWFzV-17" target="dndkz-WKVprGhuRRWFzV-2">
          <mxGeometry relative="1" as="geometry" />
        </mxCell>
        <mxCell id="OVBNsnJ0_WuL0kxNpx8--8" style="edgeStyle=orthogonalEdgeStyle;rounded=0;orthogonalLoop=1;jettySize=auto;html=1;entryX=1;entryY=0.5;entryDx=0;entryDy=0;" edge="1" parent="1" source="dndkz-WKVprGhuRRWFzV-17" target="dndkz-WKVprGhuRRWFzV-5">
          <mxGeometry relative="1" as="geometry" />
        </mxCell>
        <mxCell id="OVBNsnJ0_WuL0kxNpx8--9" style="edgeStyle=orthogonalEdgeStyle;rounded=0;orthogonalLoop=1;jettySize=auto;html=1;entryX=1;entryY=0.5;entryDx=0;entryDy=0;" edge="1" parent="1" source="dndkz-WKVprGhuRRWFzV-17" target="dndkz-WKVprGhuRRWFzV-6">
          <mxGeometry relative="1" as="geometry" />
        </mxCell>
        <mxCell id="dndkz-WKVprGhuRRWFzV-17" value="Administrador" style="shape=umlActor;verticalLabelPosition=bottom;verticalAlign=top;html=1;outlineConnect=0;" parent="1" vertex="1">
          <mxGeometry x="1010" y="570" width="30" height="60" as="geometry" />
        </mxCell>
      </root>
    </mxGraphModel>
  </diagram>
</mxfile>
